<svg width="100" height="100" viewBox="0 0 100 100" fill="none" xmlns="http://www.w3.org/2000/svg">
<g clip-path="url(#clip0_107_202)">
<path d="M69.125 13C60.9225 13 54.25 19.6725 54.25 27.875C54.25 35.508 66.184 49.0272 67.544 50.5445C67.9478 50.9907 68.5215 51.25 69.125 51.25C69.7285 51.25 70.3022 50.9907 70.706 50.5445C72.066 49.0272 84 35.508 84 27.875C84 19.6725 77.3275 13 69.125 13ZM69.125 34.25C65.606 34.25 62.75 31.394 62.75 27.875C62.75 24.356 65.606 21.5 69.125 21.5C72.644 21.5 75.5 24.356 75.5 27.875C75.5 31.394 72.644 34.25 69.125 34.25Z" fill="#27B4DC"/>
<path d="M73.868 53.3835C72.661 54.7265 70.9312 55.5 69.125 55.5C67.3188 55.5 65.589 54.7265 64.382 53.3835C63.9485 52.9032 63.3918 52.27 62.75 51.5177V81L82.6655 73.0355C83.473 72.7168 84 71.9305 84 71.0635V39.8217C80.5192 45.7165 75.8655 51.1565 73.868 53.3835ZM51.3387 33.9355L41.5 30V73.5115L58.5 80.3115V46.184C55.7843 42.5248 52.9495 38.1175 51.3387 33.9355Z" fill="white" fill-opacity="0.25"/>
<path d="M16.365 38.7485C16.6028 38.3964 16.9404 38.1234 17.3345 37.9645L37.25 30V73.5115L18.9155 80.847C18.6605 80.949 18.3928 81 18.125 81C17.7042 81 17.292 80.8725 16.935 80.6345C16.3528 80.2393 16 79.5805 16 78.875V39.9408C16.0001 39.5158 16.1272 39.1007 16.365 38.7485Z" fill="white" fill-opacity="0.25"/>
</g>
<defs>
<clipPath id="clip0_107_202">
<rect width="68" height="68" fill="white" transform="translate(16 13)"/>
</clipPath>
</defs>
</svg>
