<svg width="100" height="100" viewBox="0 0 100 100" fill="none" xmlns="http://www.w3.org/2000/svg">
<path fill-rule="evenodd" clip-rule="evenodd" d="M64.3885 32.3458H35.8858C33.94 32.3458 32.3495 33.9361 32.3495 35.882V64.3848C32.3495 66.3305 33.9398 67.921 35.8858 67.921H64.3885C66.3343 67.921 67.9247 66.3307 67.9247 64.3848V35.8822C67.9249 33.9361 66.3346 32.3458 64.3885 32.3458ZM45.59 60.6238C45.59 60.9992 45.4409 61.3593 45.1754 61.6248C44.9099 61.8903 44.5499 62.0394 44.1744 62.0394C43.799 62.0394 43.4389 61.8903 43.1734 61.6248C42.9079 61.3593 42.7588 60.9992 42.7588 60.6238V58.4057C42.407 58.167 42.1037 57.8637 41.8649 57.5119H39.6469C39.2714 57.5119 38.9114 57.3628 38.6459 57.0973C38.3804 56.8318 38.2313 56.4717 38.2313 56.0963C38.2313 55.7208 38.3804 55.3608 38.6459 55.0953C38.9114 54.8298 39.2714 54.6806 39.6469 54.6806H41.2924V51.5488H39.6469C39.2714 51.5488 38.9114 51.3996 38.6459 51.1341C38.3804 50.8687 38.2313 50.5086 38.2313 50.1331C38.2313 49.7577 38.3804 49.3976 38.6459 49.1321C38.9114 48.8667 39.2714 48.7175 39.6469 48.7175H41.2924V45.5858H39.6469C39.2714 45.5858 38.9114 45.4367 38.6459 45.1712C38.3804 44.9057 38.2313 44.5456 38.2313 44.1702C38.2313 43.7947 38.3804 43.4347 38.6459 43.1692C38.9114 42.9037 39.2714 42.7545 39.6469 42.7545H41.8649C42.1037 42.4028 42.407 42.0995 42.7588 41.8607V39.6427C42.7588 39.2672 42.9079 38.9071 43.1734 38.6417C43.4389 38.3762 43.799 38.227 44.1744 38.227C44.5499 38.227 44.9099 38.3762 45.1754 38.6417C45.4409 38.9071 45.59 39.2672 45.59 39.6427V41.2881H48.7217V39.6427C48.7217 39.2672 48.8709 38.9071 49.1364 38.6417C49.4019 38.3762 49.7619 38.227 50.1374 38.227C50.5128 38.227 50.8729 38.3762 51.1384 38.6417C51.4039 38.9071 51.553 39.2672 51.553 39.6427V41.2881H54.6847V39.6427C54.6847 39.2672 54.8339 38.9071 55.0993 38.6417C55.3648 38.3762 55.7249 38.227 56.1003 38.227C56.4758 38.227 56.8359 38.3762 57.1013 38.6417C57.3668 38.9071 57.516 39.2672 57.516 39.6427V41.861C57.8678 42.0998 58.1711 42.4031 58.4098 42.7549H60.6279C61.0033 42.7549 61.3634 42.904 61.6289 43.1695C61.8943 43.435 62.0435 43.7951 62.0435 44.1705C62.0435 44.5459 61.8943 44.906 61.6289 45.1715C61.3634 45.437 61.0033 45.5861 60.6279 45.5861H58.9824V48.7178H60.6279C61.0033 48.7178 61.3634 48.867 61.6289 49.1325C61.8943 49.398 62.0435 49.758 62.0435 50.1335C62.0435 50.5089 61.8943 50.869 61.6289 51.1345C61.3634 51.4 61.0033 51.5491 60.6279 51.5491H58.9824V54.6808H60.6279C61.0033 54.6808 61.3634 54.83 61.6289 55.0954C61.8943 55.3609 62.0435 55.721 62.0435 56.0964C62.0435 56.4719 61.8943 56.832 61.6289 57.0974C61.3634 57.3629 61.0033 57.5121 60.6279 57.5121H58.4098C58.1711 57.8639 57.8678 58.1672 57.516 58.4059V60.624C57.516 60.9994 57.3668 61.3595 57.1013 61.625C56.8359 61.8904 56.4758 62.0396 56.1003 62.0396C55.7249 62.0396 55.3648 61.8904 55.0993 61.625C54.8339 61.3595 54.6847 60.9994 54.6847 60.624V58.9785H51.553V60.624C51.553 60.9994 51.4039 61.3595 51.1384 61.625C50.8729 61.8904 50.5128 62.0396 50.1374 62.0396C49.7619 62.0396 49.4019 61.8904 49.1364 61.625C48.8709 61.3595 48.7217 60.9994 48.7217 60.624V58.9785H45.59V60.6238ZM44.6238 56.1469C44.4914 56.146 44.3647 56.093 44.2711 55.9994C44.1775 55.9058 44.1245 55.7791 44.1236 55.6467V44.6199C44.1245 44.4875 44.1775 44.3608 44.2711 44.2672C44.3647 44.1736 44.4914 44.1206 44.6238 44.1197H55.6508C55.9242 44.1197 56.151 44.3464 56.151 44.6199V55.6469C56.1501 55.7793 56.0971 55.906 56.0035 55.9996C55.9099 56.0932 55.7832 56.1462 55.6508 56.1471L44.6238 56.1469ZM53.862 70.7521H45.8798V72.9703C45.8798 73.5787 46.1298 74.1331 46.5327 74.5356C46.9354 74.9383 47.4896 75.1882 48.0981 75.1882H51.6438C52.2522 75.1882 52.8066 74.9382 53.2091 74.5356C53.6118 74.133 53.8616 73.5787 53.8616 72.9703L53.862 70.7521ZM29.5185 53.8581V45.8759H27.3002C26.0832 45.8759 25.082 46.8769 25.082 48.0942V51.6399C25.082 52.8571 26.083 53.8581 27.3002 53.8581H29.5185ZM46.4124 29.5146H54.3942V27.2963C54.3942 26.0791 53.3933 25.0781 52.176 25.0781H48.6303C47.4131 25.0781 46.4121 26.0791 46.4121 27.2963L46.4124 29.5146ZM70.756 46.4085V54.3903H72.9742C74.1914 54.3903 75.1924 53.3894 75.1924 52.1721V48.6264C75.1924 47.4092 74.1914 46.4082 72.9742 46.4082L70.756 46.4085Z" fill="#27B4DC"/>
<path d="M55.2327 81.397C55.061 81.4682 54.905 81.5724 54.7735 81.7039C53.5864 82.8906 51.9464 83.6249 50.1346 83.6251C48.3727 83.6251 46.7419 82.9498 45.496 81.7039C45.2306 81.4384 44.8705 81.2893 44.4951 81.2893C44.1197 81.2893 43.7597 81.4384 43.4942 81.7039C43.2288 81.9693 43.0796 82.3294 43.0796 82.7048C43.0796 83.0802 43.2288 83.4402 43.4942 83.7057C45.2498 85.4609 47.6525 86.4563 50.1348 86.4563C52.728 86.4563 55.0758 85.4052 56.7753 83.7057C56.9068 83.5742 57.011 83.4182 57.0822 83.2465C57.1533 83.0747 57.1899 82.8906 57.1899 82.7048C57.1899 82.5189 57.1533 82.3348 57.0822 82.1631C57.011 81.9913 56.9068 81.8353 56.7753 81.7039C56.6439 81.5724 56.4878 81.4682 56.3161 81.397C56.1444 81.3259 55.9603 81.2893 55.7744 81.2893C55.5885 81.2893 55.4045 81.3259 55.2327 81.397Z" fill="white" fill-opacity="0.3"/>
<path d="M50.1346 93.2705C45.8391 93.2705 41.7137 91.5613 38.6761 88.5236C38.4107 88.2582 38.2616 87.8983 38.2616 87.5229C38.2615 87.1476 38.4106 86.7876 38.6759 86.5222C38.8073 86.3907 38.9634 86.2865 39.1351 86.2153C39.3069 86.1442 39.4909 86.1076 39.6768 86.1076C39.8627 86.1076 40.0468 86.1442 40.2185 86.2153C40.3902 86.2865 40.5463 86.3907 40.6777 86.5222C43.2059 89.0502 46.5594 90.4394 50.1346 90.4394C53.7098 90.4394 57.0635 89.0505 59.5917 86.5223C59.8571 86.2569 60.2172 86.1078 60.5926 86.1078C60.968 86.1078 61.328 86.2569 61.5935 86.5223C61.8589 86.7878 62.0081 87.1478 62.0081 87.5232C62.0081 87.8987 61.8589 88.2587 61.5935 88.5241C58.556 91.5615 54.4302 93.2705 50.1346 93.2705Z" fill="white" fill-opacity="0.3"/>
<path d="M81.397 45.0378C81.4682 45.2095 81.5724 45.3656 81.7039 45.497C82.8906 46.6841 83.6249 48.3242 83.6251 50.1358C83.6251 51.8977 82.9498 53.5284 81.7039 54.7743C81.4415 55.0404 81.2951 55.3995 81.2964 55.7732C81.2977 56.1468 81.4468 56.5048 81.711 56.769C81.9752 57.0332 82.3332 57.1822 82.7069 57.1835C83.0806 57.1849 83.4396 57.0383 83.7057 56.776C85.4609 55.0207 86.4563 52.6181 86.4563 50.1358C86.4563 47.5425 85.4052 45.1947 83.7057 43.4952C83.5742 43.3638 83.4182 43.2595 83.2464 43.1884C83.0747 43.1172 82.8906 43.0806 82.7048 43.0806C82.5189 43.0806 82.3348 43.1172 82.1631 43.1884C81.9913 43.2595 81.8353 43.3638 81.7039 43.4952C81.5724 43.6266 81.4682 43.7827 81.397 43.9544C81.3259 44.1262 81.2893 44.3102 81.2893 44.4961C81.2893 44.682 81.3259 44.866 81.397 45.0378Z" fill="white" fill-opacity="0.3"/>
<path d="M93.2705 50.1359C93.2705 54.4315 91.5613 58.5568 88.5236 61.5945C88.2582 61.8598 87.8983 62.0089 87.5229 62.009C87.1476 62.009 86.7876 61.86 86.5222 61.5946C86.3907 61.4632 86.2865 61.3071 86.2153 61.1354C86.1442 60.9637 86.1076 60.7796 86.1076 60.5937C86.1076 60.4078 86.1442 60.2238 86.2153 60.052C86.2865 59.8803 86.3907 59.7243 86.5222 59.5928C89.0502 57.0646 90.4394 53.7111 90.4394 50.1359C90.4394 46.5607 89.0505 43.207 86.5223 40.6789C86.2569 40.4134 86.1078 40.0534 86.1078 39.678C86.1078 39.3025 86.2569 38.9425 86.5223 38.6771C86.7878 38.4116 87.1478 38.2625 87.5232 38.2625C87.8987 38.2625 88.2587 38.4116 88.5241 38.6771C91.5615 41.7146 93.2705 45.8404 93.2705 50.1359Z" fill="white" fill-opacity="0.3"/>
<path d="M44.4961 18.9814C44.8715 18.9814 45.2315 18.8323 45.497 18.5668C46.6841 17.3799 48.3242 16.6456 50.1358 16.6456C51.8977 16.6456 53.5284 17.3209 54.7743 18.5668C55.0404 18.8292 55.3995 18.9756 55.7732 18.9743C56.1468 18.973 56.5048 18.8239 56.769 18.5597C57.0332 18.2955 57.1822 17.9375 57.1835 17.5638C57.1849 17.1901 57.0383 16.8311 56.776 16.565C55.0207 14.8098 52.6181 13.8144 50.1358 13.8144C47.5425 13.8144 45.1947 14.8655 43.4952 16.565C43.2297 16.8305 43.0806 17.1905 43.0806 17.5659C43.0806 17.9413 43.2297 18.3014 43.4952 18.5668C43.7607 18.8323 44.1207 18.9814 44.4961 18.9814Z" fill="white" fill-opacity="0.3"/>
<path d="M50.1359 7C54.4315 7 58.5568 8.7092 61.5945 11.7469C62.147 12.2996 62.147 13.1959 61.5946 13.7484C61.4632 13.8798 61.3071 13.9841 61.1354 14.0552C60.9637 14.1263 60.7796 14.1629 60.5937 14.1629C60.4078 14.1629 60.2238 14.1263 60.052 14.0552C59.8803 13.9841 59.7243 13.8798 59.5928 13.7484C57.0646 11.2203 53.7111 9.83109 50.1359 9.83109C46.5607 9.83109 43.207 11.22 40.6789 13.7482C40.4134 14.0136 40.0534 14.1628 39.678 14.1628C39.3025 14.1628 38.9425 14.0136 38.6771 13.7482C38.4116 13.4827 38.2625 13.1227 38.2625 12.7473C38.2625 12.3719 38.4116 12.0118 38.6771 11.7464C41.7146 8.70904 45.8404 7 50.1359 7Z" fill="white" fill-opacity="0.3"/>
<path d="M18.8737 55.2327C18.8025 55.061 18.6983 54.905 18.5668 54.7735C17.3799 53.5864 16.6456 51.9464 16.6456 50.1346C16.6456 48.3727 17.3209 46.7419 18.5668 45.496C18.8323 45.2306 18.9814 44.8705 18.9814 44.4951C18.9814 44.1197 18.8323 43.7597 18.5668 43.4942C18.3014 43.2288 17.9413 43.0796 17.5659 43.0796C17.1905 43.0796 16.8305 43.2288 16.565 43.4942C14.8098 45.2498 13.8144 47.6525 13.8144 50.1348C13.8144 52.728 14.8655 55.0758 16.565 56.7753C16.6965 56.9068 16.8525 57.011 17.0242 57.0822C17.196 57.1533 17.38 57.1899 17.5659 57.1899C17.7518 57.1899 17.9359 57.1533 18.1076 57.0822C18.2793 57.011 18.4354 56.9068 18.5668 56.7753C18.6983 56.6439 18.8025 56.4878 18.8737 56.3161C18.9448 56.1444 18.9814 55.9603 18.9814 55.7744C18.9814 55.5885 18.9448 55.4045 18.8737 55.2327Z" fill="white" fill-opacity="0.3"/>
<path d="M7 50.1346C7.00102 45.8369 8.70839 41.7155 11.7469 38.6761C12.2996 38.1235 13.1959 38.1235 13.7484 38.6759C13.8798 38.8073 13.9841 38.9634 14.0552 39.1351C14.1263 39.3069 14.1629 39.4909 14.1629 39.6768C14.1629 39.8627 14.1263 40.0468 14.0552 40.2185C13.9841 40.3902 13.8798 40.5463 13.7484 40.6777C11.2203 43.2059 9.83109 46.5594 9.83109 50.1346C9.83109 53.7098 11.22 57.0635 13.7482 59.5917C14.0136 59.8571 14.1628 60.2172 14.1628 60.5926C14.1628 60.968 14.0136 61.328 13.7482 61.5935C13.4827 61.8589 13.1227 62.0081 12.7473 62.0081C12.3719 62.0081 12.0118 61.8589 11.7464 61.5935C8.70812 58.5538 7.00094 54.4323 7 50.1346Z" fill="white" fill-opacity="0.3"/>
</svg>
