<svg width="100" height="100" viewBox="0 0 100 100" fill="none" xmlns="http://www.w3.org/2000/svg">
<path d="M39.7057 14.5469H61.2891V29.9635H39.7057V14.5469ZM15.0391 57.7135H36.6224V73.1302H15.0391V57.7135ZM73.6224 60.7969H85.9557V70.0469H73.6224V60.7969ZM73.6224 76.2135H85.9557V85.4635H73.6224V76.2135ZM73.6224 45.3802H85.9557V54.6302H73.6224V45.3802Z" fill="#27B4DC"/>
<path d="M67.4557 51.5443C67.8646 51.5443 68.2567 51.3818 68.5459 51.0927C68.835 50.8036 68.9974 50.4115 68.9974 50.0026C68.9974 49.5937 68.835 49.2016 68.5459 48.9125C68.2567 48.6234 67.8646 48.4609 67.4557 48.4609H52.0391V36.1276C52.0391 35.7187 51.8766 35.3266 51.5875 35.0375C51.2984 34.7484 50.9063 34.5859 50.4974 34.5859C50.0885 34.5859 49.6964 34.7484 49.4073 35.0375C49.1182 35.3266 48.9557 35.7187 48.9557 36.1276V39.2109H25.8307C25.4219 39.2109 25.0297 39.3734 24.7406 39.6625C24.4515 39.9516 24.2891 40.3437 24.2891 40.7526V51.5443C24.2891 51.9531 24.4515 52.3453 24.7406 52.6344C25.0297 52.9235 25.4219 53.0859 25.8307 53.0859C26.2396 53.0859 26.6317 52.9235 26.9209 52.6344C27.21 52.3453 27.3724 51.9531 27.3724 51.5443V42.2943H48.9557V63.8776H42.7891C42.3802 63.8776 41.9881 64.04 41.6989 64.3292C41.4098 64.6183 41.2474 65.0104 41.2474 65.4193C41.2474 65.8281 41.4098 66.2203 41.6989 66.5094C41.9881 66.7985 42.3802 66.9609 42.7891 66.9609H48.9557V80.8359C48.9557 81.2448 49.1182 81.6369 49.4073 81.9261C49.6964 82.2152 50.0885 82.3776 50.4974 82.3776H67.4557C67.8646 82.3776 68.2567 82.2152 68.5459 81.9261C68.835 81.6369 68.9974 81.2448 68.9974 80.8359C68.9974 80.4271 68.835 80.0349 68.5459 79.7458C68.2567 79.4567 67.8646 79.2943 67.4557 79.2943H52.0391V66.9609H67.4557C67.8646 66.9609 68.2567 66.7985 68.5459 66.5094C68.835 66.2203 68.9974 65.8281 68.9974 65.4193C68.9974 65.0104 68.835 64.6183 68.5459 64.3292C68.2567 64.04 67.8646 63.8776 67.4557 63.8776H52.0391V51.5443H67.4557Z" fill="white" fill-opacity="0.2"/>
</svg>
