<svg width="100" height="100" viewBox="0 0 100 100" fill="none" xmlns="http://www.w3.org/2000/svg">
<path d="M87.4972 34.9131L78.9103 20.0776C78.0478 18.5634 76.9936 19.1576 71.3968 20.1926C68.6405 17.9625 65.5482 16.1834 62.2348 14.9217C60.5673 10.1107 60.4331 8.32812 58.5739 8.32812H41.4384C39.6558 8.32812 39.5217 9.6315 37.7774 14.9217C34.4641 16.1834 31.3717 17.9625 28.6155 20.1926C23.2104 19.1768 21.9836 18.5251 21.102 20.0776L12.515 34.9131C11.6717 36.4081 12.6492 37.0215 16.3485 41.3724C15.7829 44.8765 15.7829 48.4487 16.3485 51.9527C12.8025 56.0737 11.595 56.8596 12.515 58.4121L21.102 73.2475C21.9645 74.7617 23.1337 74.1676 28.6155 73.1325C31.3717 75.3627 34.4641 77.1418 37.7774 78.4035L39.6942 83.7128C39.8309 84.106 40.0919 84.4439 40.4377 84.6756C40.7835 84.9073 41.1953 85.0201 41.6109 84.997H58.7464C60.5289 84.997 60.6631 83.6937 62.4073 78.4035C65.7207 77.1418 68.8131 75.3627 71.5693 73.1325C76.9744 74.1484 78.2011 74.8001 79.0828 73.2475L87.6697 58.4121C88.5131 56.9171 87.5356 56.3037 83.8363 51.9527C84.4019 48.4487 84.4019 44.8765 83.8363 41.3724C87.1714 37.2515 88.3406 36.4656 87.4972 34.9131ZM74.866 48.3301C74.5317 53.2179 72.764 57.8986 69.7839 61.7871C66.8037 65.6755 62.7434 68.5992 58.1106 70.1926C53.4778 71.7859 48.4781 71.9783 43.7366 70.7455C38.9952 69.5127 34.7223 66.9095 31.4523 63.2614C23.6704 55.4795 22.4053 40.5866 31.0881 30.4663C47.4761 12.0274 76.4569 25.157 74.9235 48.3301H74.866Z" fill="white" fill-opacity="0.25"/>
<path d="M56.579 31.8972C56.2873 31.7582 55.9651 31.6953 55.6425 31.7142C55.3199 31.7332 55.0074 31.8333 54.7339 32.0055C54.4604 32.1776 54.2349 32.4161 54.0782 32.6988C53.9216 32.9814 53.839 33.2991 53.8381 33.6222V44.7009L50.0047 47.2693L46.1712 44.7009V33.6222C46.1703 33.2991 46.0877 32.9814 45.9311 32.6988C45.7745 32.4161 45.549 32.1776 45.2755 32.0055C45.002 31.8333 44.6894 31.7332 44.3668 31.7142C44.0442 31.6953 43.7221 31.7582 43.4303 31.8972C40.9114 33.0989 38.7682 34.9654 37.2318 37.2953C35.6954 39.6253 34.8241 42.3303 34.7117 45.119C34.5993 47.9076 35.2501 50.6741 36.5939 53.1201C37.9378 55.5662 39.9238 57.599 42.3378 58.9997V70.8833C47.2657 72.8192 52.7436 72.8192 57.6716 70.8833V58.9997C60.0856 57.599 62.0716 55.5662 63.4154 53.1201C64.7593 50.6741 65.4101 47.9076 65.2977 45.119C65.1853 42.3303 64.3139 39.6253 62.7775 37.2953C61.2411 34.9654 59.0979 33.0989 56.579 31.8972Z" fill="#27B4DC"/>
</svg>
