<svg width="13" height="12" viewBox="0 0 13 12" fill="none" xmlns="http://www.w3.org/2000/svg">
<path d="M6.53033 6.53033C6.82322 6.23744 6.82322 5.76256 6.53033 5.46967L1.75736 0.696699C1.46447 0.403805 0.989593 0.403805 0.6967 0.696699C0.403806 0.989592 0.403806 1.46447 0.6967 1.75736L4.93934 6L0.696699 10.2426C0.403805 10.5355 0.403805 11.0104 0.696699 11.3033C0.989592 11.5962 1.46447 11.5962 1.75736 11.3033L6.53033 6.53033ZM5 6.75L6 6.75L6 5.25L5 5.25L5 6.75Z" fill="white"/>
<path d="M12.5303 6.53033C12.8232 6.23744 12.8232 5.76256 12.5303 5.46967L7.75736 0.696699C7.46447 0.403805 6.98959 0.403805 6.6967 0.696699C6.40381 0.989592 6.40381 1.46447 6.6967 1.75736L10.9393 6L6.6967 10.2426C6.40381 10.5355 6.40381 11.0104 6.6967 11.3033C6.98959 11.5962 7.46447 11.5962 7.75736 11.3033L12.5303 6.53033ZM11 6.75L12 6.75L12 5.25L11 5.25L11 6.75Z" fill="white"/>
</svg>
