<svg width="20" height="20" viewBox="0 0 20 20" fill="none" xmlns="http://www.w3.org/2000/svg">
<path fill-rule="evenodd" clip-rule="evenodd" d="M4.99609 4.16406C3.61538 4.16406 2.49609 5.28335 2.49609 6.66406V13.3356C2.49609 14.7163 3.61538 15.8356 4.99609 15.8356H15.0023C16.3831 15.8356 17.5023 14.7163 17.5023 13.3356V6.66406C17.5023 5.28335 16.3831 4.16406 15.0023 4.16406H4.99609ZM6.57572 7.59201C6.2819 7.41086 5.89686 7.5022 5.71571 7.79602C5.53456 8.08984 5.6259 8.47489 5.91972 8.65604L8.35863 10.1597C9.3645 10.7798 10.6341 10.7798 11.6399 10.1597L14.0788 8.65604C14.3727 8.47489 14.464 8.08984 14.2829 7.79602C14.1017 7.5022 13.7167 7.41086 13.4228 7.59201L10.9839 9.09567C10.3803 9.46785 9.61831 9.46785 9.01463 9.09567L6.57572 7.59201Z" fill="white"/>
</svg>
