<svg width="155" height="76" viewBox="0 0 155 76" fill="none" xmlns="http://www.w3.org/2000/svg">
<g opacity="0.5">
<path d="M48.375 49.2109H57.9908V52.3528H53.4165V74.4287H48.375V49.2109Z" fill="white"/>
<path d="M63.6924 64.9617L64.5564 52.3528H64.8458L65.7098 64.9617H63.6924ZM58.1094 74.4287H63.0454L63.5126 67.7315H65.8897L66.3589 74.4287H71.2929L68.6636 49.2109H60.7386L58.1094 74.4287Z" fill="white"/>
<path d="M78.5123 65.6025V70.3566C78.5123 70.9974 79.0084 71.1834 79.2978 71.1834C79.7732 71.1834 80.1039 70.7907 80.1039 70.3566V64.4863C80.1039 63.7008 79.9592 62.8327 78.0782 62.8327H76.0319V60.0628H78.1609C79.5871 60.0628 80.1039 59.7321 80.1039 58.1818V53.1796C80.1039 52.7456 79.7732 52.3528 79.2978 52.3528C79.0084 52.3528 78.5123 52.5182 78.5123 53.1796V57.293H73.4688V53.7171C73.4688 51.9601 73.6754 49.2109 77.2101 49.2109H81.3855C84.9201 49.2109 85.1475 51.9601 85.1475 53.7171V57.7478C85.1475 60.4969 83.2251 61.241 81.7162 61.179V61.4271C85.1061 61.3444 85.1475 63.9489 85.1475 64.8377V69.9226C85.1475 71.7002 84.9201 74.4287 81.3855 74.4287H77.2101C73.6754 74.4287 73.4688 71.7002 73.4688 69.9226V65.6025H78.5123Z" fill="white"/>
<path d="M88.4531 49.2109H100.132V74.4287H95.0883V52.3528H93.4967V74.4287H88.4531V49.2109Z" fill="white"/>
<path d="M108.485 63.0807V52.3528H109.146C109.684 52.3528 110.077 52.8076 110.077 53.6137V61.8198C110.077 62.626 109.684 63.0807 109.146 63.0807H108.485ZM103.441 74.4287H108.485V65.8505H111.379C114.893 65.8505 115.12 63.122 115.12 61.3444V53.7171C115.12 51.9601 114.893 49.2109 111.379 49.2109H103.441V74.4287Z" fill="white"/>
<path d="M125.061 70.3566C125.061 70.7907 124.73 71.1834 124.255 71.1834C123.965 71.1834 123.469 70.9974 123.469 70.3566V53.1796C123.469 52.5182 123.965 52.3528 124.255 52.3528C124.73 52.3528 125.061 52.7456 125.061 53.1796V70.3566ZM118.426 69.9226C118.426 71.7002 118.653 74.4287 122.167 74.4287H126.363C129.877 74.4287 130.104 71.7002 130.104 69.9226V53.7171C130.104 51.9601 129.877 49.2109 126.363 49.2109H122.167C118.653 49.2109 118.426 51.9601 118.426 53.7171V69.9226Z" fill="white"/>
<path d="M146.519 49.2109H153.092V74.4287H148.049V58.6159H147.863L145.258 74.4287H141.227L138.644 58.6159H138.458V74.4287H133.414V49.2109H139.967L143.253 66.946L146.519 49.2109Z" fill="white"/>
<path d="M41.8385 14.7322C40.2944 7.97305 36.4249 2.47476 35.8916 1.58594C35.0483 2.84682 31.9622 7.70433 30.3933 13.0786C28.6798 19.0937 28.4276 24.4266 29.0188 29.6562C29.6058 34.9064 31.8237 40.3014 31.8237 40.3014C33.0019 43.1125 34.7672 46.1511 35.9164 47.6393C37.6011 45.4483 41.4726 38.9165 42.6798 30.4003C43.3515 25.6461 43.3805 21.4914 41.8385 14.7322ZM35.8916 45.9444C35.133 44.5181 33.9548 41.8103 33.8432 37.5936C33.8143 33.5422 35.441 30.0489 35.9164 29.3254C36.3402 30.0489 37.7416 33.0874 37.9091 37.2422C38.0227 41.2935 36.675 44.4974 35.8916 45.9444ZM41.3899 26.2042C41.3321 28.788 41.0241 31.5165 40.6313 33.1494C40.7719 30.3383 40.435 26.3903 39.7901 23.2897C39.1451 20.2099 37.3199 15.0423 35.8627 12.6652C34.5171 14.9389 32.8593 19.4037 31.9912 23.2691C31.1189 27.1344 31.0941 31.8266 31.0941 33.2321C30.8626 32.0539 30.2838 27.8165 30.4471 23.5791C30.5835 20.0858 31.402 16.4685 31.8506 14.8149C33.5621 9.29596 35.4989 5.76133 35.8627 5.20323C36.2265 5.76133 38.6656 10.1228 39.9306 14.6909C41.1894 19.259 41.4437 23.6411 41.3899 26.2042Z" fill="white"/>
<path d="M38.5118 49.2076H26.7731V57.083C26.7835 57.083 26.7917 57.0624 26.8021 57.0624C29.5677 54.2925 34.0532 54.2925 36.8209 57.0624C39.5866 59.8115 39.5866 64.2969 36.8209 67.0668C36.8086 67.0874 36.7962 67.0874 36.7837 67.1081C36.7693 67.1081 36.7548 67.1288 36.7424 67.1495C33.9829 69.8779 30.378 71.2422 26.7731 71.2422C23.1517 71.2422 19.5303 69.8779 16.7687 67.1081C11.8988 62.2506 11.3221 54.7059 15.0345 49.2076C15.5347 48.4635 16.1114 47.7607 16.7687 47.0993C19.5303 44.3295 23.1517 42.9652 26.7731 42.9652V24.0312C12.8579 24.0312 1.57812 35.2965 1.57812 49.2076C1.57812 63.1187 12.8579 74.4047 26.7731 74.4047C34.0284 74.4047 40.5643 71.3248 45.1614 66.426V49.2076H38.5118Z" fill="white"/>
</g>
</svg>
