<svg width="80" height="91" viewBox="0 0 80 91" fill="none" xmlns="http://www.w3.org/2000/svg">
<rect width="80" height="80" rx="24" fill="#245EB6"/>
<path d="M39.2711 90.7829C39.7007 91.0724 40.2993 91.0724 40.7289 90.7829L46.5316 86.8742C47.4356 86.2653 46.9435 85 45.8027 85H34.1973C33.0565 85 32.5644 86.2653 33.4684 86.8742L39.2711 90.7829Z" fill="#245EB6"/>
<path d="M29 47.2V32.8C29 30.16 31.2 28 33.8889 28H50.1968C50.6508 28 51 28.3429 51 28.7886V32.0114C51 32.4571 50.6508 32.8 50.1968 32.8H34.6921C34.2381 32.8 33.8889 33.1429 33.8889 33.5886V46.4114C33.8889 46.8571 34.2381 47.2 34.6921 47.2H50.1968C50.6508 47.2 51 47.5429 51 47.9886V51.2114C51 51.6571 50.6508 52 50.1968 52H33.8889C31.2 52 29 49.84 29 47.2Z" fill="white"/>
</svg>
