<svg width="70" height="70" viewBox="0 0 70 70" fill="none" xmlns="http://www.w3.org/2000/svg">
<path d="M28.2919 28.8621C25.8759 28.8621 23.914 26.9029 23.914 24.4896C23.914 22.0709 25.8759 20.1116 28.2919 20.1116C30.7079 20.1116 32.6645 22.0709 32.6645 24.4896C32.6645 26.9029 30.7079 28.8621 28.2919 28.8621ZM35.0021 0C15.6661 0 0 15.6688 0 35.0021C0 51.7789 11.807 65.7992 27.5596 69.2124V37.8018L27.5617 37.7997C27.597 36.2836 28.8049 35.0621 30.3074 35.0053L31.764 35.0032H34.7286C34.934 35.0032 35.1016 34.841 35.1124 34.6384L35.1145 0.00626968M59.1225 54.0966C56.7092 54.0966 54.7473 52.1373 54.7473 49.7186C54.7473 47.308 56.7092 45.3487 59.1225 45.3487C61.5358 45.3487 63.4978 47.308 63.4978 49.7186C63.4978 52.1373 61.5358 54.0966 59.1225 54.0966ZM48.8667 54.0966C46.4535 54.0966 44.4942 52.1373 44.4942 49.7186C44.4942 47.308 46.4535 45.3487 48.8667 45.3487C51.2827 45.3487 53.242 47.308 53.242 49.7186C53.242 52.1373 51.2827 54.0966 48.8667 54.0966ZM38.6055 54.0966C36.1923 54.0966 34.2276 52.1373 34.2276 49.7186C34.2276 47.308 36.1923 45.3487 38.6055 45.3487C41.0242 45.3487 42.9835 47.308 42.9835 49.7186C42.9835 52.1373 41.0242 54.0966 38.6055 54.0966ZM39.3217 0.263802V35.0011V36.3523V36.3767L39.313 36.3854C39.3001 37.9474 38.0267 39.2094 36.4593 39.2094H35.1134H32.1516C31.9354 39.2094 31.7624 39.3824 31.7624 39.5959V69.8579C32.8299 69.9552 33.9054 70.0092 34.9999 70.0092C54.3333 70.0092 70.0021 54.335 70.0021 35.0017C70.0021 17.1358 56.6147 2.39333 39.3217 0.263802Z" fill="white" fill-opacity="0.6"/>
</svg>
