<svg width="28" height="28" viewBox="0 0 28 28" fill="none" xmlns="http://www.w3.org/2000/svg">
<path d="M14.1366 3.25781C11.0667 3.25781 8.57812 5.74647 8.57812 8.81629C8.57812 11.8862 11.0667 14.375 14.1366 14.375C17.2065 14.375 19.6951 11.8862 19.6951 8.81629C19.6951 5.74647 17.2065 3.25781 14.1366 3.25781ZM14.1366 11.1142C12.8676 11.1142 11.8389 10.0854 11.8389 8.81637C11.8389 7.54738 12.8676 6.51862 14.1366 6.51862C15.4056 6.51862 16.4344 7.54738 16.4344 8.81637C16.4344 10.0854 15.4056 11.1142 14.1366 11.1142Z" fill="#26292A"/>
<path d="M16.09 18.8011C18.3153 18.3478 19.6488 17.294 19.7194 17.2374C20.3705 16.7152 20.4751 15.764 19.9529 15.1128C19.4308 14.4616 18.4797 14.357 17.8283 14.8792C17.8146 14.8903 16.3923 15.9813 14.0522 15.9829C11.7121 15.9813 10.2598 14.8903 10.246 14.8792C9.59467 14.357 8.64355 14.4616 8.12141 15.1128C7.5992 15.764 7.7038 16.7152 8.35496 17.2374C8.42647 17.2948 9.81501 18.3761 12.1027 18.8187L8.9144 22.1507C8.33499 22.7516 8.35241 23.7084 8.9533 24.2878C9.24658 24.5706 9.62458 24.7111 10.0023 24.7111C10.3982 24.7111 10.7938 24.5564 11.0904 24.2488L14.0522 21.0936L17.3133 24.2693C17.9042 24.8592 18.8609 24.8582 19.4507 24.2676C20.0404 23.6769 20.0397 22.72 19.449 22.1302L16.09 18.8011Z" fill="#26292A"/>
</svg>
