<svg width="18" height="18" viewBox="0 0 18 18" fill="none" xmlns="http://www.w3.org/2000/svg">
<path fill-rule="evenodd" clip-rule="evenodd" d="M6.74579 1.87019C7.09477 1.16289 7.81507 0.715088 8.60377 0.715088C9.39247 0.715088 10.1128 1.16289 10.4618 1.87019L11.5159 4.0071C11.8176 4.61872 12.401 5.04268 13.0759 5.14077L15.4339 5.48349C16.2141 5.59698 16.8623 6.14347 17.106 6.89327C17.3497 7.64307 17.1468 8.46623 16.5824 9.01678L14.8754 10.6817C14.3875 11.1577 14.1648 11.8432 14.2801 12.5151L14.6829 14.8631C14.8161 15.6403 14.4966 16.4257 13.8587 16.8892C13.2208 17.3528 12.3751 17.414 11.6771 17.0472L9.56755 15.9385C8.96412 15.6213 8.2433 15.6213 7.63987 15.9385L5.53032 17.0472C4.8323 17.414 3.98658 17.3528 3.34869 16.8892C2.71079 16.4257 2.39132 15.6403 2.52456 14.8631L2.92733 12.5151C3.04257 11.8432 2.81995 11.1577 2.33199 10.6817L0.625125 9.01678C0.0607667 8.46622 -0.14219 7.64305 0.101553 6.89325C0.345297 6.14344 0.99349 5.59696 1.77371 5.48349L4.13173 5.14077C4.80663 5.04268 5.39002 4.61872 5.69172 4.0071L6.74579 1.87019Z" fill="#DDE119"/>
</svg>
