<svg width="28" height="28" viewBox="0 0 28 28" fill="none" xmlns="http://www.w3.org/2000/svg">
<path fill-rule="evenodd" clip-rule="evenodd" d="M5.79781 13.0432C10.2096 11.121 13.1515 9.85383 14.6235 9.24158C18.8263 7.49348 19.6996 7.18982 20.2688 7.17979C20.394 7.17759 20.6739 7.20862 20.8552 7.35574C21.0083 7.47998 21.0505 7.6478 21.0706 7.76559C21.0908 7.88337 21.1159 8.15169 21.0959 8.36135C20.8682 10.7544 19.8827 16.5616 19.3814 19.2418C19.1692 20.3759 18.7515 20.7561 18.3471 20.7933C17.4683 20.8742 16.8009 20.2125 15.9497 19.6546C14.6177 18.7814 13.8652 18.2379 12.5723 17.3859C11.0782 16.4013 12.0468 15.8601 12.8983 14.9757C13.1212 14.7442 16.9934 11.2221 17.0683 10.9026C17.0777 10.8626 17.0864 10.7137 16.9979 10.635C16.9094 10.5564 16.7788 10.5833 16.6846 10.6047C16.551 10.635 14.4231 12.0414 10.301 14.8239C9.69707 15.2387 9.15 15.4408 8.65985 15.4302C8.1195 15.4185 7.08007 15.1246 6.30737 14.8735C5.35961 14.5654 4.60636 14.4025 4.67195 13.8793C4.70611 13.6068 5.0814 13.3281 5.79781 13.0432Z" fill="#26292A"/>
</svg>
