<svg width="28" height="28" viewBox="0 0 28 28" fill="none" xmlns="http://www.w3.org/2000/svg">
<path fill-rule="evenodd" clip-rule="evenodd" d="M23.4981 6.10467C24.534 6.38198 25.3482 7.19607 25.6255 8.23201C26.1266 10.1078 26.1286 14.0237 26.1286 14.0237C26.1286 14.0237 26.1286 17.9397 25.6255 19.8155C25.3482 20.8514 24.534 21.6655 23.4981 21.9427C21.6224 22.4459 14.0975 22.4459 14.0975 22.4459C14.0975 22.4459 6.57262 22.4459 4.69684 21.9427C3.66091 21.6655 2.84682 20.8514 2.56952 19.8155C2.06641 17.9397 2.06641 14.0237 2.06641 14.0237C2.06641 14.0237 2.06641 10.1078 2.56952 8.23201C2.84682 7.19607 3.66091 6.38198 4.69684 6.10467C6.57262 5.60156 14.0975 5.60156 14.0975 5.60156C14.0975 5.60156 21.6224 5.60156 23.4981 6.10467ZM17.9427 14.023L11.6914 17.6319V10.4141L17.9427 14.023Z" fill="#26292A"/>
</svg>
