<svg width="111" height="31" viewBox="0 0 111 31" fill="none" xmlns="http://www.w3.org/2000/svg">
<g clip-path="url(#clip0_107_88)">
<path d="M32.1801 24.0012L32.1562 24.0251V27.3164L32.1801 27.3402H33.1914C34.2169 27.3402 34.9562 26.6009 34.9562 25.6707C34.9562 24.7406 34.2169 24.0012 33.1914 24.0012H32.1801ZM32.5235 24.3686H33.1914C33.9688 24.3686 34.5317 24.9409 34.5317 25.6707C34.5317 26.4005 33.9688 26.9729 33.1914 26.9729H32.5235V24.3686ZM36.1181 24.0012L36.0943 24.0251V27.3164L36.1181 27.3402H36.4377L36.4616 27.3164V24.0251L36.4377 24.0012H36.1181ZM40.621 24.6595V24.2398C40.311 24.0061 39.8817 23.9297 39.4285 23.9297C38.403 23.9297 37.616 24.7167 37.616 25.6707C37.616 26.6486 38.4269 27.4118 39.4524 27.4118C39.8817 27.4118 40.311 27.2925 40.6687 27.0302V25.5324L40.6449 25.5086H39.5478L39.524 25.5324V25.8567L39.5478 25.8806H40.3014V26.8108C40.0486 26.9586 39.729 27.0254 39.4524 27.0254C38.6511 27.0254 38.0357 26.4387 38.0357 25.6707C38.0357 24.9171 38.6272 24.3161 39.4285 24.3161C39.834 24.3161 40.2776 24.4019 40.5972 24.6834L40.621 24.6595ZM41.9398 24.0012L41.916 24.0251V27.3164L41.9398 27.3402H42.2594L42.2833 27.3164V24.0251L42.2594 24.0012H41.9398ZM43.3375 24.0012L43.3137 24.0251V24.3447L43.3375 24.3686H44.4632V27.3164L44.4871 27.3402H44.8115L44.8353 27.3164V24.3686H45.961L45.9849 24.3447V24.0251L45.961 24.0012H43.3375ZM47.4587 24.0012L47.4349 24.0251L46.1089 27.3164L46.1327 27.3402H46.4857L46.5095 27.3164L46.8625 26.4435H48.3889L48.7467 27.3164L48.7705 27.3402H49.1235L49.1473 27.3164L47.8165 24.0251L47.7927 24.0012H47.4587ZM47.6257 24.5069L48.2458 26.0762H47.0104L47.6257 24.5069ZM50.1297 24.0012L50.1106 24.0203V27.3212L50.1297 27.3402H52.0329L52.052 27.3212V26.9968L52.0329 26.9729H50.4779V24.0203L50.4588 24.0012H50.1297ZM52.9167 26.0332L52.8929 26.0571V26.3815L52.9167 26.4053H54.3954L54.4192 26.3815V26.0571L54.3954 26.0332H52.9167ZM56.5151 24.0012L56.4912 24.0251L55.1652 27.3164L55.1891 27.3402H55.542L55.5659 27.3164L55.9189 26.4435H57.4453L57.803 27.3164L57.8268 27.3402H58.1798L58.2036 27.3164L56.8729 24.0251L56.849 24.0012H56.5151ZM56.6821 24.5069L57.3022 26.0762H56.0668L56.6821 24.5069ZM59.1908 24.0012L59.1669 24.0251V27.3164L59.1908 27.3402H59.5103L59.5342 27.3164V24.3686H61.0845L61.1083 24.3447V24.0251L61.0845 24.0012H59.1908ZM62.1646 24.0012L62.1407 24.0251V27.3164L62.1646 27.3402H64.2013L64.2252 27.3164V26.9968L64.2013 26.9729H62.508V25.6898H63.6767L63.7005 25.666V25.3416L63.6767 25.3178H62.508V24.3686H64.0582L64.0821 24.3447V24.0251L64.0582 24.0012H62.1646ZM65.3293 24.0012L65.3055 24.0251V27.3164L65.3293 27.3402H65.6489L65.6727 27.3164V25.6898H67.595V27.3164L67.6188 27.3402H67.9382L67.962 27.3164V24.0251L67.9382 24.0012H67.6188L67.595 24.0251V25.3178H65.6727V24.0251L65.6489 24.0012H65.3293ZM69.0142 24.0012L68.9903 24.0251V24.3447L69.0142 24.3686H70.1397V27.3164L70.1635 27.3402H70.4882L70.512 27.3164V24.3686H71.6375L71.6613 24.3447V24.0251L71.6375 24.0012H69.0142ZM75.0491 24.7072V24.2874C74.7389 24.0633 74.3573 23.9297 73.9044 23.9297C72.9263 23.9297 72.1394 24.7167 72.1394 25.6707C72.1394 26.6248 72.9263 27.4118 73.9044 27.4118C74.3573 27.4118 74.7389 27.2782 75.0491 27.054V26.6343L75.0252 26.6104C74.7058 26.8727 74.3097 27.0254 73.9044 27.0254C73.165 27.0254 72.5593 26.4244 72.5593 25.6707C72.5593 24.9171 73.165 24.3161 73.9044 24.3161C74.3097 24.3161 74.7058 24.4687 75.0252 24.7311L75.0491 24.7072ZM76.0053 24.0012L75.9815 24.0251V24.3447L76.0053 24.3686H77.1308V27.3164L77.1546 27.3402H77.4793L77.5031 27.3164V24.3686H78.6286L78.6524 24.3447V24.0251L78.6286 24.0012H76.0053ZM79.7072 24.0012L79.6833 24.0251V27.3164L79.7072 27.3402H80.795C81.4384 27.3402 81.9158 26.9061 81.9158 26.3338C81.9158 25.914 81.6771 25.5706 81.1574 25.4275C81.367 25.3082 81.5098 25.1222 81.5098 24.8408C81.5098 24.3352 81.1335 24.0012 80.4656 24.0012H79.7072ZM80.0504 24.3686H80.4656C80.8995 24.3686 81.0906 24.5498 81.0906 24.8408C81.0906 25.1699 80.8565 25.3416 80.4656 25.3416H80.0504V24.3686ZM80.0504 25.7137H80.795C81.2241 25.7137 81.4959 25.9713 81.4959 26.3338C81.4959 26.7154 81.2241 26.9729 80.795 26.9729H80.0504V25.7137ZM84.6284 23.9297C83.655 23.9297 82.8635 24.712 82.8635 25.6707C82.8635 26.6295 83.655 27.4118 84.6284 27.4118C85.6012 27.4118 86.3927 26.6295 86.3927 25.6707C86.3927 24.712 85.6012 23.9297 84.6284 23.9297ZM84.6284 24.3161C85.3678 24.3161 85.9682 24.9219 85.9682 25.6707C85.9682 26.4196 85.3678 27.0254 84.6284 27.0254C83.8891 27.0254 83.2827 26.4196 83.2827 25.6707C83.2827 24.9219 83.8891 24.3161 84.6284 24.3161Z" fill="white"/>
<path fill-rule="evenodd" clip-rule="evenodd" d="M12.2338 2.64844C13.5569 2.64844 14.8309 2.85847 16.0244 3.24701L13.708 7.35567H16.4455L18.1678 4.18138C21.9251 6.26941 24.4676 10.2789 24.4676 14.8822C24.4676 21.6388 18.9904 27.116 12.2338 27.116C5.47725 27.116 0 21.6388 0 14.8822C0 8.12567 5.47725 2.64844 12.2338 2.64844ZM11.0918 9.61396L11.1622 9.5436H13.1332L13.2036 9.61396L16.9345 19.3284L16.8641 19.3988H14.6819L14.6114 19.3284L13.9075 17.3574H10.3878L9.68387 19.3284L9.61345 19.3988H7.43127L7.36084 19.3284L11.0918 9.61396ZM13.274 15.3863L12.1477 12.0778L11.0214 15.3863H13.274Z" fill="white"/>
<path d="M35.2977 2.64844C36.4509 2.64844 37.3328 2.91826 37.9438 3.45763C38.5546 3.99699 38.8601 4.81106 38.8601 5.8993V10.3818H37.1301V9.45096C36.9053 9.7851 36.5853 10.0404 36.1699 10.2171C35.7546 10.3938 35.2536 10.4821 34.6673 10.4821C34.0808 10.4821 33.5678 10.3842 33.128 10.1886C32.6882 9.99275 32.3487 9.72063 32.1091 9.3722C31.8697 9.02363 31.75 8.62997 31.75 8.19061C31.75 7.50327 32.0113 6.95195 32.5342 6.53655C33.0572 6.12131 33.8807 5.91369 35.0044 5.91369H37.0276V5.79908C37.0276 5.26447 36.8639 4.85397 36.5363 4.56746C36.209 4.28107 35.7227 4.13781 35.0778 4.13781C34.638 4.13781 34.2056 4.20475 33.7803 4.33837C33.3552 4.47199 32.9961 4.65816 32.7029 4.89688L31.9845 3.59369C32.395 3.28816 32.8886 3.05418 33.4652 2.89204C34.0419 2.72964 34.6525 2.64844 35.2977 2.64844ZM35.0484 9.17877C35.5077 9.17877 35.9158 9.07614 36.2725 8.87094C36.6294 8.66568 36.8809 8.37207 37.0276 7.99024V7.10227H35.1364C34.0808 7.10227 33.5531 7.44131 33.5531 8.11913C33.5531 8.44362 33.6851 8.70152 33.9489 8.89243C34.2128 9.08335 34.5794 9.17877 35.0484 9.17877ZM44.3868 7.31712H42.9648V10.3818H41.1324V2.73454H42.9648V5.82774H44.4307L46.747 2.73454H48.7115L45.8675 6.4149L48.9021 10.3818H46.747L44.3868 7.31712ZM58.5136 8.86373L59.054 10.3717L57.0677 10.3818H50.192V2.73454H52.0246V8.86373H55.7628V2.73454H57.5952V8.86373H58.5136ZM67.7398 6.60104C67.7398 6.7252 67.7306 6.9019 67.7107 7.13097H61.5682C61.6756 7.69438 61.9568 8.14055 62.4112 8.47C62.8656 8.79939 63.4302 8.96412 64.1044 8.96412C64.9642 8.96412 65.6728 8.6871 66.2301 8.13348L67.2121 9.2361C66.8603 9.64676 66.4159 9.95691 65.8781 10.1671C65.3404 10.377 64.7348 10.4821 64.0605 10.4821C63.2001 10.4821 62.4427 10.3149 61.7881 9.98078C61.1329 9.64676 60.6274 9.18128 60.2709 8.58454C59.9138 7.98793 59.7356 7.31236 59.7356 6.55803C59.7356 5.81334 59.9093 5.14266 60.2563 4.546C60.6026 3.94933 61.0841 3.48383 61.6998 3.14965C62.3156 2.8156 63.0095 2.64844 63.7816 2.64844C64.5442 2.64844 65.2257 2.81316 65.8269 3.14245C66.4278 3.47202 66.8967 3.93493 67.2346 4.53173C67.5712 5.12841 67.7398 5.81823 67.7398 6.60104ZM63.7816 4.08064C63.1951 4.08064 62.6991 4.25011 62.2936 4.58891C61.8882 4.92798 61.6413 5.37908 61.5536 5.94234H65.9956C65.9168 5.38858 65.6778 4.93979 65.2769 4.5961C64.8765 4.25241 64.3777 4.08064 63.7816 4.08064ZM69.7482 2.73454H71.5806V5.84213H75.5238V2.73454H77.3569V10.3818H75.5238V7.3601H71.5806V10.3818H69.7482V2.73454ZM86.0264 4.25241H83.2794V10.3818H81.4463V4.25241H78.6907V2.73454H86.0151L86.0264 4.25241Z" fill="white"/>
<path d="M108.126 20.1004H105.609L107.923 14.0625H110.439L108.126 20.1004Z" fill="white"/>
<path d="M32.3047 13.9403H33.9293V16.1336H36.3819V13.9403H38.0171V19.5597H36.3819V17.4602H33.9293V19.5597H32.3047V13.9403ZM41.7695 13.8568C42.643 13.8568 43.3138 14.0639 43.782 14.4782C44.2503 14.8925 44.4843 15.5175 44.4843 16.3531V19.5597H42.954V18.8599C42.6465 19.3821 42.0735 19.6432 41.235 19.6432C40.8018 19.6432 40.4263 19.5701 40.1083 19.4238C39.7903 19.2777 39.5475 19.0757 39.3797 18.818C39.2122 18.5604 39.1282 18.268 39.1282 17.9407C39.1282 17.4185 39.3256 17.0075 39.7205 16.7081C40.1153 16.4087 40.725 16.259 41.5495 16.259H42.8492C42.8492 15.904 42.7409 15.6305 42.5242 15.4392C42.3075 15.2476 41.9826 15.1519 41.5495 15.1519C41.249 15.1519 40.9538 15.1989 40.6638 15.2929C40.3737 15.3868 40.1276 15.514 39.9248 15.6741L39.3379 14.5357C39.6453 14.3197 40.0139 14.1526 40.4436 14.0343C40.8734 13.916 41.3154 13.8568 41.7695 13.8568ZM41.6436 18.5466C41.9234 18.5466 42.1713 18.4821 42.388 18.3533C42.6046 18.2245 42.7583 18.0346 42.8492 17.784V17.2096H41.7276C41.0568 17.2096 40.7215 17.4288 40.7215 17.8677C40.7215 18.0766 40.8035 18.2418 40.9677 18.3638C41.132 18.4856 41.3573 18.5466 41.6436 18.5466ZM52.1987 13.8568C52.7228 13.8568 53.1997 13.9769 53.6294 14.2171C54.0592 14.4573 54.3963 14.7949 54.6409 15.2302C54.8855 15.6654 55.0078 16.1721 55.0078 16.75C55.0078 17.3279 54.8855 17.8344 54.6409 18.2697C54.3963 18.7049 54.0592 19.0426 53.6294 19.2828C53.1997 19.5231 52.7228 19.6432 52.1987 19.6432C51.4789 19.6432 50.913 19.4169 50.5007 18.9643V21.5861H48.8657V13.9403H50.4273V14.5878C50.8325 14.1005 51.423 13.8568 52.1987 13.8568ZM51.9157 18.3063C52.335 18.3063 52.6791 18.1653 52.9481 17.8833C53.2171 17.6012 53.3517 17.2235 53.3517 16.75C53.3517 16.2765 53.2171 15.8988 52.9481 15.6167C52.6791 15.3347 52.335 15.1937 51.9157 15.1937C51.4964 15.1937 51.1523 15.3347 50.8833 15.6167C50.6143 15.8988 50.4797 16.2765 50.4797 16.75C50.4797 17.2235 50.6143 17.6012 50.8833 17.8833C51.1523 18.1653 51.4964 18.3063 51.9157 18.3063ZM61.6323 16.7709C61.6323 16.7918 61.6217 16.938 61.6009 17.2096H57.3348C57.4116 17.5577 57.5935 17.8328 57.8797 18.0346C58.166 18.2367 58.5224 18.3377 58.949 18.3377C59.2425 18.3377 59.5029 18.2941 59.7297 18.207C59.957 18.1199 60.168 17.9825 60.3639 17.7945L61.2338 18.7345C60.7029 19.3403 59.9272 19.6432 58.9068 19.6432C58.271 19.6432 57.7085 19.5196 57.2194 19.2724C56.7302 19.0252 56.353 18.6822 56.0874 18.2435C55.8219 17.8048 55.6891 17.307 55.6891 16.75C55.6891 16.1998 55.8202 15.7038 56.0821 15.2616C56.3442 14.8195 56.704 14.4747 57.1618 14.2276C57.6193 13.9802 58.1312 13.8568 58.6975 13.8568C59.2492 13.8568 59.7487 13.9751 60.1961 14.2118C60.6434 14.4486 60.9947 14.7881 61.2496 15.2302C61.5044 15.6725 61.6323 16.186 61.6323 16.7709ZM58.7076 15.0893C58.3371 15.0893 58.0268 15.1937 57.7748 15.4026C57.5233 15.6115 57.3696 15.897 57.3134 16.259H60.0911C60.0355 15.904 59.8818 15.6202 59.6303 15.4078C59.3789 15.1955 59.0713 15.0893 58.7076 15.0893ZM66.4752 16.6351C66.8098 16.7395 67.0704 16.8997 67.2555 17.1156C67.4407 17.3314 67.5333 17.5891 67.5333 17.8885C67.5333 18.2435 67.4109 18.5551 67.1662 18.8232C66.9216 19.0914 66.5863 19.2986 66.1598 19.4448C65.7341 19.591 65.252 19.6641 64.7137 19.6641C64.2736 19.6641 63.8404 19.6189 63.4144 19.5284C62.9878 19.4378 62.5927 19.302 62.2295 19.1211L62.6696 17.9825C63.2639 18.268 63.9207 18.4107 64.6401 18.4107C65.0246 18.4107 65.3271 18.3533 65.5471 18.2385C65.7672 18.1235 65.8772 17.9615 65.8772 17.7526C65.8772 17.5716 65.8003 17.4342 65.6465 17.3401C65.4927 17.2461 65.2693 17.1992 64.9758 17.1992H63.823V16.186H64.8293C65.1155 16.186 65.3355 16.1407 65.4894 16.0501C65.6432 15.9597 65.72 15.8273 65.72 15.6533C65.72 15.4721 65.6241 15.3329 65.4316 15.2355C65.2396 15.1379 64.9652 15.0893 64.6087 15.0893C64.0638 15.0893 63.4699 15.218 62.8267 15.4757L62.4288 14.3476C63.2112 14.0065 63.9728 13.8359 64.7137 13.8359C65.2239 13.8359 65.6796 13.8985 66.0815 14.0238C66.4831 14.1492 66.7992 14.332 67.03 14.5722C67.2608 14.8124 67.3765 15.0926 67.3765 15.4131C67.3765 15.6777 67.2952 15.9162 67.1352 16.1286C66.9745 16.341 66.7536 16.5097 66.4752 16.6351ZM74.3677 13.9403L71.8197 19.9044C71.5618 20.552 71.2418 21.0081 70.8615 21.2727C70.4799 21.5373 70.021 21.6696 69.4827 21.6696C69.1891 21.6696 68.8988 21.6243 68.6125 21.5337C68.3268 21.4433 68.092 21.3179 67.9109 21.1578L68.508 19.9984C68.6343 20.1099 68.7791 20.1968 68.9431 20.2596C69.1071 20.3222 69.2691 20.3534 69.4305 20.3534C69.654 20.3534 69.8359 20.2995 69.9754 20.1917C70.1156 20.0836 70.2412 19.9044 70.353 19.6537L70.3735 19.6015L67.9314 13.9403H69.619L71.2021 17.7526L72.7944 13.9403H74.3677ZM80.1638 13.9403V19.5597H78.5278V15.2772H76.7463L76.6941 16.2695C76.6656 17.0075 76.5962 17.6205 76.4844 18.1078C76.3727 18.5953 76.1908 18.9782 75.9395 19.2568C75.6882 19.5352 75.3384 19.6746 74.8914 19.6746C74.654 19.6746 74.371 19.6327 74.0423 19.5492L74.1263 18.2123C74.238 18.2262 74.3181 18.2332 74.3677 18.2332C74.6117 18.2332 74.7948 18.1443 74.9172 17.9668C75.0395 17.7892 75.1215 17.5631 75.1638 17.2879C75.2062 17.0128 75.2366 16.6491 75.2584 16.1965L75.3417 13.9403H80.1638ZM84.7855 15.7367C85.5189 15.7438 86.0823 15.9091 86.4732 16.2329C86.8646 16.5567 87.0604 17.0146 87.0604 17.6065C87.0604 18.2262 86.8422 18.7084 86.4057 19.0532C85.9679 19.3977 85.3556 19.5701 84.5653 19.5701L81.7357 19.5597V13.9403H83.3598V15.7367H84.7855ZM84.4192 18.4107C84.7333 18.4177 84.974 18.3515 85.142 18.2123C85.31 18.0729 85.3939 17.864 85.3939 17.5856C85.3939 17.314 85.3113 17.1156 85.1479 16.9901C84.9833 16.8649 84.7399 16.7986 84.4192 16.7918L83.3598 16.7812V18.4107H84.4192ZM92.3011 15.2772H90.3933V19.5597H88.7691V15.2772H86.8613V13.9403H92.3011V15.2772ZM95.3615 13.8568C96.2351 13.8568 96.9056 14.0639 97.3745 14.4782C97.842 14.8925 98.0761 15.5175 98.0761 16.3531V19.5597H96.5459V18.8599C96.239 19.3821 95.6657 19.6432 94.8272 19.6432C94.394 19.6432 94.0184 19.5701 93.7004 19.4238C93.3823 19.2777 93.1396 19.0757 92.9716 18.818C92.8043 18.5604 92.7203 18.268 92.7203 17.9407C92.7203 17.4185 92.9181 17.0075 93.3122 16.7081C93.7076 16.4087 94.3167 16.259 95.1413 16.259H96.4414C96.4414 15.904 96.3329 15.6305 96.1167 15.4392C95.8998 15.2476 95.5751 15.1519 95.1413 15.1519C94.8411 15.1519 94.5461 15.1989 94.2558 15.2929C93.9655 15.3868 93.7195 15.514 93.5165 15.6741L92.93 14.5357C93.2368 14.3197 93.6058 14.1526 94.0356 14.0343C94.4655 13.916 94.9072 13.8568 95.3615 13.8568ZM95.2359 18.5466C95.5156 18.5466 95.7636 18.4821 95.9798 18.3533C96.1967 18.2245 96.3501 18.0346 96.4414 17.784V17.2096H95.3198C94.6486 17.2096 94.3134 17.4288 94.3134 17.8677C94.3134 18.0766 94.3954 18.2418 94.5594 18.3638C94.724 18.4856 94.9495 18.5466 95.2359 18.5466ZM103.992 15.2772H102.332V19.5597H100.707V15.2772H98.7995V13.9403H104.487L103.992 15.2772Z" fill="white"/>
</g>
<defs>
<clipPath id="clip0_107_88">
<rect width="110.435" height="30.4192" fill="white"/>
</clipPath>
</defs>
</svg>
