<svg width="173" height="40" viewBox="0 0 173 40" fill="none" xmlns="http://www.w3.org/2000/svg">
<g clip-path="url(#clip0_107_240)">
<path d="M59.9973 16.2513L44.9296 23.8623L41.7017 30.5145L28.222 37.3849L25.375 35.95L38.8547 29.0796L42.0826 22.4274L57.1503 14.8164L59.9973 16.2513Z" fill="white"/>
<path d="M53.8629 14.3204L39.9507 21.3495L36.7228 28.0017L19.7376 36.5847L16.8906 35.1498L33.7919 26.6065L37.1037 19.908L51.0159 12.8789L53.8629 14.3204Z" fill="white"/>
<path d="M57.9117 22.3361L49.9904 26.3366L46.7625 32.9954L38.6282 37.1216L35.7812 35.6867L43.9155 31.5539L47.1434 24.9017L55.0647 20.8945L57.9117 22.3361Z" fill="white"/>
<path d="M46.4947 7.97668L29.9873 16.3084L26.7594 22.9672L9.94856 31.4709L7.10156 30.036L23.9124 21.5257L27.1403 14.8735L43.6477 6.53516L46.4947 7.97668Z" fill="white"/>
<path d="M54.2934 9.08726L34.9648 18.8341L31.7434 25.4863L11.8079 35.577L8.96094 34.1354L28.8964 24.0514L32.1243 17.3992L51.4464 7.65234L54.2934 9.08726Z" fill="white"/>
<path d="M43.3181 4.5482L25.0031 13.7991L21.7817 20.4513L4.37044 29.279L1.52344 27.8441L18.9347 19.0164L22.1561 12.3576L40.4711 3.11328L43.3181 4.5482Z" fill="white"/>
<path d="M34.7708 3.82945L20.0258 11.2817L16.7979 17.9405L2.847 24.9961L0 23.5612L13.9509 16.499L17.1788 9.84683L31.9238 2.39453L34.7708 3.82945Z" fill="white"/>
<path d="M23.939 4.26575L15.0429 8.76886L11.815 15.421L5.26242 18.7273L2.42188 17.2924L8.96803 13.9861L12.1959 7.32734L21.092 2.82422L23.939 4.26575Z" fill="white"/>
</g>
<path d="M75.177 19.7044V9.81775C75.177 8.00519 76.66 6.52219 78.4725 6.52219H89.4656C89.7716 6.52219 90.007 6.75758 90.007 7.0636V9.27634C90.007 9.58235 89.7716 9.81775 89.4656 9.81775H79.014C78.7079 9.81775 78.4725 10.0531 78.4725 10.3592V19.163C78.4725 19.469 78.7079 19.7044 79.014 19.7044H89.4656C89.7716 19.7044 90.007 19.9398 90.007 20.2459V22.4586C90.007 22.7646 89.7716 23 89.4656 23H78.4725C76.66 23 75.177 21.517 75.177 19.7044ZM92.395 7.0636C92.395 6.75758 92.6304 6.52219 92.9364 6.52219H95.1492C95.5023 6.52219 95.8318 6.66343 96.0437 6.9459L103.929 16.0558C106.542 13.0192 109.179 9.98253 111.815 6.9459C112.004 6.71051 112.404 6.52219 112.71 6.52219H114.923C115.229 6.52219 115.464 6.75758 115.464 7.0636V22.4586C115.464 22.7646 115.205 23 114.923 23H112.71C112.404 23 112.168 22.7646 112.168 22.4586V12.1011C112.168 11.8186 112.004 11.748 111.815 11.9834C109.297 14.8788 106.801 17.7742 104.283 20.6931C104.188 20.7873 104.071 20.8579 103.929 20.8579C103.812 20.8579 103.671 20.7873 103.576 20.6931C101.058 17.7742 98.5624 14.8788 96.0437 11.9834C95.8554 11.748 95.6906 11.8186 95.6906 12.1246V22.4586C95.6906 22.7646 95.4552 23 95.1492 23H92.96C92.6539 23 92.395 22.7646 92.395 22.4586V7.0636ZM130.461 9.81775H121.657C121.351 9.81775 121.115 10.0531 121.115 10.3592V15.8675C121.115 16.1735 121.351 16.4089 121.657 16.4089H130.461C130.767 16.4089 131.002 16.1735 131.002 15.8675V10.3592C131.002 10.0531 130.767 9.81775 130.461 9.81775ZM117.82 22.4586V9.81775C117.82 8.00519 119.303 6.52219 121.115 6.52219H131.002C132.815 6.52219 134.298 8.00519 134.298 9.81775V22.4586C134.298 22.7646 134.062 23 133.756 23H131.543C131.237 23 131.002 22.7646 131.002 22.4586V20.2459C131.002 19.9398 130.767 19.7044 130.461 19.7044H121.657C121.351 19.7044 121.115 19.9398 121.115 20.2459V22.4586C121.115 22.7646 120.88 23 120.574 23H118.361C118.055 23 117.82 22.7646 117.82 22.4586ZM149.288 9.81775H140.484C140.178 9.81775 139.943 10.0531 139.943 10.3592V15.8675C139.943 16.1735 140.178 16.4089 140.484 16.4089H149.288C149.594 16.4089 149.829 16.1735 149.829 15.8675V10.3592C149.829 10.0531 149.594 9.81775 149.288 9.81775ZM136.647 22.4586V9.81775C136.647 8.00519 138.13 6.52219 139.943 6.52219H149.829C151.642 6.52219 153.125 8.00519 153.125 9.81775V16.4089C153.125 18.2214 151.642 19.7044 149.829 19.7044H140.484C140.178 19.7044 139.943 19.9398 139.943 20.2459V22.4586C139.943 22.7646 139.707 23 139.401 23H137.188C136.882 23 136.647 22.7646 136.647 22.4586ZM155.037 7.0636C155.037 6.75758 155.273 6.52219 155.579 6.52219H170.974C171.28 6.52219 171.515 6.75758 171.515 7.0636V9.27634C171.515 9.58235 171.28 9.81775 170.974 9.81775H165.465C165.159 9.81775 164.924 10.0531 164.924 10.3592V22.4586C164.924 22.7646 164.689 23 164.383 23H162.17C161.864 23 161.628 22.7646 161.628 22.4586V10.3592C161.628 10.0531 161.393 9.81775 161.087 9.81775H155.579C155.273 9.81775 155.037 9.58235 155.037 9.27634V7.0636Z" fill="white"/>
<path d="M74.5806 31.9949H75.2736L76.903 35.9748H76.9592L78.5886 31.9949H79.2816V36.7896H78.7385V33.1467H78.6916L77.1933 36.7896H76.6689L75.1706 33.1467H75.1237V36.7896H74.5806V31.9949ZM84.4912 34.3922C84.4912 34.8979 84.3999 35.3349 84.2173 35.7033C84.0347 36.0716 83.7842 36.3557 83.4658 36.5554C83.1474 36.7552 82.7837 36.8551 82.3748 36.8551C81.9659 36.8551 81.6022 36.7552 81.2838 36.5554C80.9655 36.3557 80.715 36.0716 80.5323 35.7033C80.3497 35.3349 80.2584 34.8979 80.2584 34.3922C80.2584 33.8865 80.3497 33.4495 80.5323 33.0812C80.715 32.7129 80.9655 32.4288 81.2838 32.229C81.6022 32.0292 81.9659 31.9294 82.3748 31.9294C82.7837 31.9294 83.1474 32.0292 83.4658 32.229C83.7842 32.4288 84.0347 32.7129 84.2173 33.0812C84.3999 33.4495 84.4912 33.8865 84.4912 34.3922ZM83.9293 34.3922C83.9293 33.9771 83.8599 33.6267 83.721 33.3411C83.5836 33.0554 83.3971 32.8393 83.1614 32.6926C82.9273 32.5459 82.6651 32.4725 82.3748 32.4725C82.0845 32.4725 81.8215 32.5459 81.5859 32.6926C81.3517 32.8393 81.1652 33.0554 81.0263 33.3411C80.889 33.6267 80.8203 33.9771 80.8203 34.3922C80.8203 34.8074 80.889 35.1578 81.0263 35.4434C81.1652 35.729 81.3517 35.9452 81.5859 36.0919C81.8215 36.2386 82.0845 36.312 82.3748 36.312C82.6651 36.312 82.9273 36.2386 83.1614 36.0919C83.3971 35.9452 83.5836 35.729 83.721 35.4434C83.8599 35.1578 83.9293 34.8074 83.9293 34.3922ZM85.4675 36.7896V31.9949H86.0481V34.13H88.6046V31.9949H89.1852V36.7896H88.6046V34.6451H86.0481V36.7896H85.4675ZM90.3475 31.9949H90.9188V35.7688H90.9656L93.5877 31.9949H94.1495V36.7896H93.5689V33.025H93.5221L90.9094 36.7896H90.3475V31.9949ZM95.0491 32.51V31.9949H98.6451V32.51H97.1374V36.7896H96.5568V32.51H95.0491ZM103.387 34.3922C103.387 34.8979 103.296 35.3349 103.113 35.7033C102.931 36.0716 102.68 36.3557 102.362 36.5554C102.043 36.7552 101.68 36.8551 101.271 36.8551C100.862 36.8551 100.498 36.7552 100.18 36.5554C99.8613 36.3557 99.6108 36.0716 99.4282 35.7033C99.2456 35.3349 99.1543 34.8979 99.1543 34.3922C99.1543 33.8865 99.2456 33.4495 99.4282 33.0812C99.6108 32.7129 99.8613 32.4288 100.18 32.229C100.498 32.0292 100.862 31.9294 101.271 31.9294C101.68 31.9294 102.043 32.0292 102.362 32.229C102.68 32.4288 102.931 32.7129 103.113 33.0812C103.296 33.4495 103.387 33.8865 103.387 34.3922ZM102.825 34.3922C102.825 33.9771 102.756 33.6267 102.617 33.3411C102.479 33.0554 102.293 32.8393 102.057 32.6926C101.823 32.5459 101.561 32.4725 101.271 32.4725C100.98 32.4725 100.717 32.5459 100.482 32.6926C100.248 32.8393 100.061 33.0554 99.9222 33.3411C99.7848 33.6267 99.7162 33.9771 99.7162 34.3922C99.7162 34.8074 99.7848 35.1578 99.9222 35.4434C100.061 35.729 100.248 35.9452 100.482 36.0919C100.717 36.2386 100.98 36.312 101.271 36.312C101.561 36.312 101.823 36.2386 102.057 36.0919C102.293 35.9452 102.479 35.729 102.617 35.4434C102.756 35.1578 102.825 34.8074 102.825 34.3922ZM104.363 36.7896V31.9949H105.983C106.36 31.9949 106.667 32.0628 106.906 32.1986C107.146 32.3328 107.324 32.5146 107.44 32.7441C107.555 32.9735 107.613 33.2295 107.613 33.512C107.613 33.7945 107.555 34.0512 107.44 34.2822C107.326 34.5132 107.149 34.6974 106.91 34.8347C106.672 34.9705 106.366 35.0384 105.993 35.0384H104.832V34.5233H105.974C106.232 34.5233 106.438 34.4789 106.594 34.3899C106.75 34.3009 106.864 34.1807 106.934 34.0294C107.006 33.8764 107.042 33.7039 107.042 33.512C107.042 33.32 107.006 33.1483 106.934 32.9969C106.864 32.8455 106.75 32.7269 106.592 32.6411C106.434 32.5537 106.225 32.51 105.965 32.51H104.944V36.7896H104.363ZM108.548 31.9949H109.119V35.7688H109.166L111.788 31.9949H112.35V36.7896H111.769V33.025H111.723L109.11 36.7896H108.548V31.9949ZM113.512 36.7896V31.9949H114.092V34.13H116.649V31.9949H117.23V36.7896H116.649V34.6451H114.092V36.7896H113.512ZM121.286 31.9949V32.51H118.973V36.7896H118.392V31.9949H121.286ZM123.776 32.51V31.9949H127.372V32.51H125.864V36.7896H125.284V32.51H123.776ZM128.268 36.7896V31.9949H129.888C130.264 31.9949 130.572 32.0628 130.811 32.1986C131.051 32.3328 131.229 32.5146 131.344 32.7441C131.46 32.9735 131.518 33.2295 131.518 33.512C131.518 33.7945 131.46 34.0512 131.344 34.2822C131.23 34.5132 131.054 34.6974 130.815 34.8347C130.576 34.9705 130.27 35.0384 129.897 35.0384H128.736V34.5233H129.879C130.136 34.5233 130.343 34.4789 130.499 34.3899C130.655 34.3009 130.768 34.1807 130.839 34.0294C130.91 33.8764 130.946 33.7039 130.946 33.512C130.946 33.32 130.91 33.1483 130.839 32.9969C130.768 32.8455 130.654 32.7269 130.497 32.6411C130.339 32.5537 130.13 32.51 129.869 32.51H128.849V36.7896H128.268ZM132.16 36.7896H131.551L133.312 31.9949H133.911L135.672 36.7896H135.063L133.63 32.7534H133.593L132.16 36.7896ZM132.385 34.9166H134.838V35.4317H132.385V34.9166ZM136.419 36.7896V31.9949H136.999V34.13H139.556V31.9949H140.136V36.7896H139.556V34.6451H136.999V36.7896H136.419ZM145.157 33.4932H144.576C144.542 33.3262 144.482 33.1795 144.396 33.0531C144.312 32.9267 144.209 32.8206 144.087 32.7347C143.967 32.6473 143.833 32.5818 143.687 32.5381C143.54 32.4944 143.387 32.4725 143.228 32.4725C142.938 32.4725 142.675 32.5459 142.439 32.6926C142.205 32.8393 142.018 33.0554 141.879 33.3411C141.742 33.6267 141.673 33.9771 141.673 34.3922C141.673 34.8074 141.742 35.1578 141.879 35.4434C142.018 35.729 142.205 35.9452 142.439 36.0919C142.675 36.2386 142.938 36.312 143.228 36.312C143.387 36.312 143.54 36.2901 143.687 36.2464C143.833 36.2027 143.967 36.1379 144.087 36.0521C144.209 35.9647 144.312 35.8578 144.396 35.7314C144.482 35.6034 144.542 35.4567 144.576 35.2912H145.157C145.113 35.5363 145.034 35.7556 144.918 35.9491C144.803 36.1426 144.659 36.3073 144.487 36.4431C144.316 36.5773 144.123 36.6795 143.909 36.7498C143.697 36.82 143.47 36.8551 143.228 36.8551C142.819 36.8551 142.455 36.7552 142.137 36.5554C141.819 36.3557 141.568 36.0716 141.385 35.7033C141.203 35.3349 141.111 34.8979 141.111 34.3922C141.111 33.8865 141.203 33.4495 141.385 33.0812C141.568 32.7129 141.819 32.4288 142.137 32.229C142.455 32.0292 142.819 31.9294 143.228 31.9294C143.47 31.9294 143.697 31.9645 143.909 32.0347C144.123 32.1049 144.316 32.208 144.487 32.3437C144.659 32.478 144.803 32.6418 144.918 32.8354C145.034 33.0274 145.113 33.2466 145.157 33.4932ZM149.682 31.9949V36.7896H149.101V32.51H146.685V36.7896H146.105V31.9949H149.682ZM154.898 34.3922C154.898 34.8979 154.807 35.3349 154.625 35.7033C154.442 36.0716 154.191 36.3557 153.873 36.5554C153.555 36.7552 153.191 36.8551 152.782 36.8551C152.373 36.8551 152.009 36.7552 151.691 36.5554C151.373 36.3557 151.122 36.0716 150.94 35.7033C150.757 35.3349 150.666 34.8979 150.666 34.3922C150.666 33.8865 150.757 33.4495 150.94 33.0812C151.122 32.7129 151.373 32.4288 151.691 32.229C152.009 32.0292 152.373 31.9294 152.782 31.9294C153.191 31.9294 153.555 32.0292 153.873 32.229C154.191 32.4288 154.442 32.7129 154.625 33.0812C154.807 33.4495 154.898 33.8865 154.898 34.3922ZM154.337 34.3922C154.337 33.9771 154.267 33.6267 154.128 33.3411C153.991 33.0554 153.804 32.8393 153.569 32.6926C153.335 32.5459 153.072 32.4725 152.782 32.4725C152.492 32.4725 152.229 32.5459 151.993 32.6926C151.759 32.8393 151.572 33.0554 151.434 33.3411C151.296 33.6267 151.228 33.9771 151.228 34.3922C151.228 34.8074 151.296 35.1578 151.434 35.4434C151.572 35.729 151.759 35.9452 151.993 36.0919C152.229 36.2386 152.492 36.312 152.782 36.312C153.072 36.312 153.335 36.2386 153.569 36.0919C153.804 35.9452 153.991 35.729 154.128 35.4434C154.267 35.1578 154.337 34.8074 154.337 34.3922ZM155.875 36.7896V31.9949H157.495C157.871 31.9949 158.178 32.0628 158.417 32.1986C158.658 32.3328 158.835 32.5146 158.951 32.7441C159.066 32.9735 159.124 33.2295 159.124 33.512C159.124 33.7945 159.066 34.0512 158.951 34.2822C158.837 34.5132 158.661 34.6974 158.422 34.8347C158.183 34.9705 157.877 35.0384 157.504 35.0384H156.343V34.5233H157.485C157.743 34.5233 157.95 34.4789 158.106 34.3899C158.262 34.3009 158.375 34.1807 158.445 34.0294C158.517 33.8764 158.553 33.7039 158.553 33.512C158.553 33.32 158.517 33.1483 158.445 32.9969C158.375 32.8455 158.261 32.7269 158.103 32.6411C157.946 32.5537 157.737 32.51 157.476 32.51H156.455V36.7896H155.875ZM159.797 32.51V31.9949H163.393V32.51H161.886V36.7896H161.305V32.51H159.797ZM163.926 36.7896H163.317L165.078 31.9949H165.677L167.438 36.7896H166.829L165.396 32.7534H165.359L163.926 36.7896ZM164.151 34.9166H166.604V35.4317H164.151V34.9166Z" fill="white"/>
<defs>
<clipPath id="clip0_107_240">
<rect width="60" height="35" fill="white" transform="translate(0 2.39453)"/>
</clipPath>
</defs>
</svg>
